<?xml version="1.0" encoding="UTF-8" standalone="no"?>
<!-- Created with Inkscape (http://www.inkscape.org/) -->

<svg
   width="210mm"
   height="297mm"
   viewBox="0 0 210 297"
   version="1.1"
   id="svg1"
   xml:space="preserve"
   inkscape:version="1.4.2 (f4327f4, 2025-05-13)"
   sodipodi:docname="dibujo.svg"
   xmlns:inkscape="http://www.inkscape.org/namespaces/inkscape"
   xmlns:sodipodi="http://sodipodi.sourceforge.net/DTD/sodipodi-0.dtd"
   xmlns="http://www.w3.org/2000/svg"
   xmlns:svg="http://www.w3.org/2000/svg"><sodipodi:namedview
     id="namedview1"
     pagecolor="#ffffff"
     bordercolor="#000000"
     borderopacity="0.25"
     inkscape:showpageshadow="2"
     inkscape:pageopacity="0.0"
     inkscape:pagecheckerboard="0"
     inkscape:deskcolor="#d1d1d1"
     inkscape:document-units="mm"
     inkscape:zoom="0.55856481"
     inkscape:cx="1139.5276"
     inkscape:cy="546.93742"
     inkscape:window-width="1600"
     inkscape:window-height="829"
     inkscape:window-x="-8"
     inkscape:window-y="-8"
     inkscape:window-maximized="1"
     inkscape:current-layer="layer1" /><defs
     id="defs1" /><g
     inkscape:label="Capa 1"
     inkscape:groupmode="layer"
     id="layer1"><g
       id="g1"
       inkscape:export-filename="icon.png"
       inkscape:export-xdpi="96"
       inkscape:export-ydpi="96"><rect
         style="fill:#ffffff;stroke:none;stroke-width:4.04611;fill-opacity:1"
         id="rect1"
         width="128.24556"
         height="128.24556"
         x="270.29938"
         y="41.036217" /><path
         style="fill:#000000;stroke-width:0.879176"
         d="m 295.8274,144.5636 c -3.69207,-0.42243 -7.93704,-2.06548 -11.05986,-4.28083 -3.22439,-2.28741 -6.59013,-6.57755 -8.1172,-10.3466 -1.62312,-4.00615 -2.18038,-9.09404 -1.43152,-13.07018 0.44032,-2.33792 11.20302,-35.066741 12.35684,-37.576535 2.2113,-4.810001 6.48412,-9.119267 11.34011,-11.43682 2.07612,-0.990841 5.265,-1.860592 7.83355,-2.136566 1.43304,-0.15397 11.83403,-0.210246 29.32055,-0.158647 27.01506,0.07974 27.10568,0.08159 29.01452,0.589127 7.53743,2.004206 13.22223,6.609192 16.22045,13.139433 1.23156,2.682377 11.94204,35.277808 12.33803,37.548578 0.6147,3.52498 0.2861,8.56833 -0.71459,10.96763 -1.53688,3.68487 -6.75868,3.93357 -8.46766,0.40328 -0.56219,-1.16133 -0.56161,-1.67887 0.006,-5.62182 0.26864,-1.86485 0.25846,-2.35254 -0.0848,-4.07077 -0.61417,-3.07362 -11.32966,-35.044101 -12.27713,-36.629775 -1.19816,-2.005199 -3.41975,-4.086958 -5.53705,-5.188495 -3.33774,-1.736479 -1.62887,-1.648404 -32.05675,-1.652246 -18.68693,-0.0026 -27.65046,0.07587 -28.49539,0.248772 -2.10709,0.431113 -5.2537,2.10998 -6.79856,3.627368 -2.65513,2.607919 -2.61975,2.523052 -8.84703,21.219846 -6.41621,19.26399 -6.49998,19.59299 -5.87969,23.0925 1.2452,7.02507 7.092,12.05548 14.01198,12.05548 5.27372,0 10.15956,-2.96148 12.64845,-7.66668 0.37501,-0.70896 1.00934,-2.22269 1.40961,-3.36383 1.08969,-3.10664 2.04205,-4.72199 3.86563,-6.55672 2.04681,-2.05934 4.64744,-3.43493 7.43165,-3.93092 2.64881,-0.47187 18.51869,-0.47187 21.1675,0 2.78419,0.49599 5.38482,1.87158 7.43163,3.93092 1.82359,1.83473 2.77594,3.45008 3.86564,6.55672 1.74549,4.97625 4.00708,7.6959 8.01006,9.63238 2.47069,1.19522 4.18803,1.5078 7.04236,1.2818 4.45912,-0.35307 5.01896,-0.31036 6.13899,0.46836 1.87777,1.30556 2.55771,3.75253 1.61772,5.82191 -0.87654,1.92969 -2.44613,2.68007 -6.55081,3.13174 -9.51534,1.04704 -19.06187,-4.30785 -23.43238,-13.14384 -0.50625,-1.0235 -1.15823,-2.59366 -1.44884,-3.48923 -0.96562,-2.97578 -1.66247,-3.95303 -3.30952,-4.64121 -1.28388,-0.53644 -18.61333,-0.53644 -19.89721,0 -1.64705,0.68818 -2.34389,1.66543 -3.30952,4.64121 -2.97306,9.16212 -10.78775,15.55347 -20.31628,16.61596 -2.46059,0.27437 -2.54456,0.27419 -5.03976,-0.0113 z m 15.93416,-34.28145 c -0.12794,-0.0426 -0.51856,-0.1406 -0.86805,-0.21761 -0.85545,-0.1885 -2.19784,-1.40165 -2.7512,-2.48631 -0.37294,-0.73105 -0.45152,-1.37246 -0.45152,-3.68572 v -2.80065 l -2.50062,-8.8e-4 c -2.96585,-0.002 -3.97683,-0.24249 -5.07945,-1.2106 -2.29157,-2.01203 -2.29157,-5.101409 0,-7.113439 1.10262,-0.968114 2.1136,-1.209061 5.07945,-1.2106 l 2.50062,-0.0018 v -2.80061 c 0,-3.174777 0.27531,-4.019622 1.72455,-5.292071 0.7558,-0.663594 2.07696,-1.209299 2.92776,-1.209299 1.52559,0 3.73028,1.50188 4.33895,2.955783 0.20389,0.487064 0.31335,1.726175 0.31335,3.54738 v 2.798859 l 2.50062,0.0018 c 3.05703,0.0018 4.00235,0.24602 5.22772,1.351725 1.13708,1.026043 1.57629,1.982051 1.57629,3.431123 0,1.36472 -0.50543,2.431565 -1.63577,3.452755 -1.16392,1.051534 -2.14233,1.297464 -5.16824,1.299034 l -2.50062,8.8e-4 v 2.81438 c 0,3.21612 -0.21855,3.90955 -1.63575,5.1899 -1.06531,0.96245 -2.67635,1.49348 -3.59809,1.18601 z m 43.29839,-0.21729 c -1.81667,-0.66608 -3.17223,-2.56795 -3.17223,-4.45074 0,-3.54973 4.16697,-5.915307 7.00961,-3.97935 1.42144,0.96806 2.13988,2.12217 2.24753,3.61044 0.10794,1.49235 -0.23875,2.44082 -1.31661,3.60187 -1.21437,1.3081 -3.16393,1.806 -4.7683,1.21778 z m -9.30461,-9.31374 c -1.80784,-0.64448 -3.17224,-2.554837 -3.17224,-4.441612 0,-3.549724 4.16697,-5.915315 7.00961,-3.979351 1.42374,0.969626 2.13985,2.121717 2.24797,3.616559 0.11951,1.652131 -0.30869,2.688381 -1.58871,3.844806 -1.36142,1.229958 -2.84821,1.547248 -4.49663,0.959598 z m 19.50777,0.22641 c -0.12794,-0.0426 -0.51856,-0.14061 -0.86804,-0.21761 -0.85545,-0.1885 -2.19786,-1.401647 -2.75121,-2.486314 -0.55032,-1.078732 -0.58492,-2.762017 -0.0787,-3.828819 0.52693,-1.110426 1.98951,-2.354109 3.12942,-2.661047 1.84729,-0.497429 3.52767,0.156177 4.95204,1.926153 0.94733,1.177191 1.13061,3.129258 0.42387,4.514567 -0.95989,1.88155 -3.33778,3.24331 -4.80739,2.75307 z m -10.20316,-9.521908 c -1.81667,-0.666072 -3.17223,-2.567942 -3.17223,-4.450725 0,-3.549728 4.16697,-5.915319 7.00961,-3.979355 1.42144,0.968061 2.13988,2.122165 2.24753,3.610435 0.10794,1.492358 -0.23875,2.440822 -1.31661,3.601881 -1.21437,1.308091 -3.16393,1.805995 -4.7683,1.217764 z"
         id="path1"
         inkscape:export-filename="logo.png"
         inkscape:export-xdpi="96"
         inkscape:export-ydpi="96" /></g></g></svg>
